<?xml version="1.0" encoding="utf-8"?>
<!-- Generator: Adobe Illustrator 22.0.1, SVG Export Plug-In . SVG Version: 6.00 Build 0)  -->
<svg version="1.1" id="Layer_1" xmlns="http://www.w3.org/2000/svg" xmlns:xlink="http://www.w3.org/1999/xlink" x="0px" y="0px"
	 viewBox="0 0 1440 1024" style="enable-background:new 0 0 1440 1024;" xml:space="preserve">
<style type="text/css">
	.st0{opacity:0;fill:#FFFFFF;stroke:#000000;stroke-width:9;stroke-miterlimit:10;}
	.st1{fill:#FFFFFF;}
</style>
<polyline class="st0" points="0,1020 365,762 365,260 0,0 "/>
<polyline class="st0" points="365,762 1080,766 1080,260 1440,0 "/>
<line class="st0" x1="1440" y1="1024" x2="1080" y2="766"/>
<line class="st0" x1="1080" y1="260" x2="365" y2="260"/>
<polygon class="st1" points="1086,260 1440,7 1440,1015 1086,766 "/>
<polygon class="st1" points="1429,1024 1080,770.7 365,769.3 5.3,1024 "/>
<polygon class="st1" points="1.3,1013.3 359.3,759.3 360,260 1.3,8 "/>
<polygon class="st1" points="11.3,0 365,253.3 1080,254.7 1430,0 "/>
<polygon class="st1" points="370.7,755.3 370.7,267.3 1074.7,265.3 1074.7,760.7 "/>
</svg>
